<svg xmlns="http://www.w3.org/2000/svg" viewBox="0 0 4035.42 901.28"><defs><style>.cls-1{fill:#15ad86;}</style></defs><g id="Layer_2" data-name="Layer 2"><g id="primero"><path class="cls-1" d="M812.25,805.22h38.66c7.36,0,12.56-1.52,15.64-4.6s4.6-8.29,4.6-15.65V450c0-7.37-1.53-12.57-4.6-15.65s-8.28-4.6-15.64-4.6H812.25V407.61h89V293.43c-.83,0-1.67.05-2.51.05q-20.26,0-34.06-13.81t-13.8-34.05q0-21.17,13.8-34.52t34.06-13.34c.84,0,1.68,0,2.51.05V53.87A53.87,53.87,0,0,0,847.41,0H53.87A53.87,53.87,0,0,0,0,53.87V847.41a53.87,53.87,0,0,0,53.87,53.87H847.41a53.87,53.87,0,0,0,53.87-53.87v-20.1h-89Zm-78-72.08q-33.87,46.58-90.46,70.36T519.41,827.31H133.22V793.45h74.06q14.81,0,20.11-5.82t5.29-19.57V133.22q0-14.81-5.29-20.1t-20.11-5.29H133.22V74H505.66q62.41,0,116.91,23.28t87.29,64q32.79,40.74,32.8,92.58,0,69.82-51.84,113.21t-127,63.49v6.34q48.66,7.42,95.76,31.22t77.77,62.95q30.68,39.16,30.68,91Q768.06,686.6,734.2,733.14ZM563.85,376q20.08-40.71,20.1-122.2,0-68.78-24.33-107.39T493,107.83h-78.3q-13.76,0-19.57,5.29t-5.82,20.1V416.78h97.34Q543.75,416.78,563.85,376Zm-77.24,74.6H389.27V768.06q0,13.76,5.82,19.57t19.57,5.82h71.95q56.07,0,84.12-37.56t28-133.84q0-96.27-28-133.85T486.61,450.64ZM942,800.62c-3.08-3.06-4.61-8.29-4.61-15.65V407.61H901.28v419.7h95.05V805.22H957.67C950.31,805.22,945.09,803.7,942,800.62Zm2147.7-16.57q-37.29,32.24-79.62,32.22-59.84,0-86.06-54.31t-26.23-146.34H3127q15.64,0,22.09-3.22t6.44-13.35a289.18,289.18,0,0,0-16.1-95.26q-16.12-46.47-52-76.85t-92-30.38q-50.62,0-91.58,30.84t-64,81.91q-23,51.09-23,110,0,103.1,52,161.07t137.6,58q65.34,0,106.31-43.72t46.48-110.91h-22.09Q3127,751.85,3089.73,784.05ZM2922.21,469.73q24.38-51.08,71.33-51.08,44.19,0,63.51,50.62t19.33,124.26H2897.82Q2897.82,520.82,2922.21,469.73ZM1867,293.48q21.16,0,34.52-13.81t13.34-34.05q0-21.17-13.34-34.52T1867,197.76q-20.25,0-34,13.34t-13.81,34.52q0,20.25,13.81,34.05T1867,293.48Zm43.26,507.14c-3.08-3.06-4.6-8.29-4.6-15.65V407.61H1780.49V429.7h38.65c7.37,0,12.57,1.54,15.65,4.6s4.6,8.28,4.6,15.65V785c0,7.36-1.54,12.59-4.6,15.65s-8.28,4.6-15.65,4.6h-38.65v22.09h184.08V805.22h-38.66C1918.55,805.22,1913.32,803.7,1910.26,800.62Zm749.19-2.76q-26.72,0-37.74-18.41t-11-46v-300H2724.8V407.61H2610.67V230.89h-25.78V264q0,54.33-23.47,99t-64.88,44.64h-20.25v25.77h68.11V728.83q0,50.63,27.15,80.07t68.57,29.46q65.34,0,83.29-44.64t18-106.31H2724.8Q2724.8,797.86,2659.45,797.86ZM2315.23,426.48q-42.34-29.91-93-29.92t-93,29.92Q2087,456.39,2062.58,507t-24.39,110.45q0,59.84,24.39,110.45t66.73,80.53q42.32,29.89,93,29.92t93-29.92q42.32-29.9,66.73-80.53t24.39-110.45q0-59.82-24.39-110.45T2315.23,426.48Zm-13.81,337.78q-23.94,52-79.15,52t-79.16-52q-23.94-52-23.93-146.8t23.93-146.81q23.92-52,79.16-52t79.15,52q23.92,52,23.93,146.81T2301.42,764.26Zm1205.7,12.43q-30.37,39.59-86.52,39.58-58.91,0-79.15-49.71t-20.25-149.1q0-99.4,20.71-149.11t78.69-49.7q30.38,0,50.62,10.59t29.92,24.39q9.66,13.8,9.66,24.85,0,12-14.73,16.57A44,44,0,0,0,3474,509.77q-9.22,11-9.21,27.61t12.43,28.54q12.42,12,30.83,12,21.16,0,35.9-16.11t14.72-44.64q0-28.51-16.57-56.6t-47.86-46q-31.29-17.94-73.63-17.95-52.45,0-93.42,29.46t-64,80.07q-23,50.63-23,111.37t22.55,111.37q22.55,50.63,63.51,80.07t94.34,29.46q45.09,0,77.32-23a147.63,147.63,0,0,0,48.78-58.45A207.38,207.38,0,0,0,3566,683.73h-22.09Q3537.49,737.12,3507.12,776.69Zm511.73-69q0,38.65-10.12,65.35t-33.14,26.69q-28.53,0-28.53-46V527.26q0-67.17-44.18-98.94T3798,396.56A158,158,0,0,0,3736.75,409,115.64,115.64,0,0,0,3688,446.26q-18.87,24.86-18.87,58.91,0,29.46,16.57,45.1t36.81,15.65q17.47,0,29-8.29T3763,530q0-14.71-8.74-23t-25.31-12.89a25.15,25.15,0,0,1-7.83-3.68,21.11,21.11,0,0,1-6-5.52q-2.76-4.59-2.76-13.81,0-20.22,25.77-36.35a105.56,105.56,0,0,1,57.07-16.11q85.59,0,85.59,85.6v78.23l-84.67,15.65q-45.1,8.28-76.86,19.79t-55.68,38.2q-23.94,26.7-23.93,73.63,0,60.75,35.43,84.67t84.22,23.94q41.41,0,72.25-29t44.64-61.2l4.6,1.84q1.85,41.41,21.63,64.88t59.37,23.48q41.41,0,57.52-37.74t16.11-93Zm-138.06-18.41q-18.42,50.63-41.87,83.3T3774,805.22q-22.09,0-39.58-15.19T3717,732.51q0-49.71,19.79-76.85t64-36.36l80.07-17.49ZM933.28,279.67q13.34-13.8,13.35-34.05,0-21.17-13.35-34.52-12.56-12.53-32-13.29v95.62Q920.74,292.65,933.28,279.67Zm438.1,145.88q-37.28-29-80.53-29-35.89,0-64.43,23.47a144.31,144.31,0,0,0-42.34,56.61l-3.68-.92V172H1046v22.09h47.86c7.37,0,12.57,1.54,15.65,4.61s4.6,8.28,4.6,15.64v613h16.57l38.65-79.15H1173q18.39,40.5,49.7,65.34t68.11,24.86q43.25,0,80.53-29t59.37-79.61q22.1-50.61,22.09-112.29t-22.09-112.29Q1408.66,454.56,1371.38,425.55ZM1348.83,762q-23,50.63-68.11,50.62-27.6,0-50.62-20.25t-36.35-55.68q-13.37-35.42-13.35-76.85V575.12q0-41.42,13.35-76.85t36.35-55.69q23-20.24,50.62-20.25,45.09,0,68.11,50.63t23,144.5Q1371.84,711.34,1348.83,762Zm312.93,38.66c-3.07-3.06-4.6-8.29-4.6-15.65V172H1522.78v22.09h47.86c7.37,0,12.57,1.54,15.65,4.61s4.6,8.28,4.6,15.64V785c0,7.36-1.54,12.59-4.6,15.65s-8.28,4.6-15.65,4.6h-47.86v22.09h202.49V805.22h-47.86C1670.05,805.22,1664.83,803.7,1661.76,800.62Z"/></g></g></svg>