<svg id="Layer_1" data-name="Layer 1" xmlns="http://www.w3.org/2000/svg" viewBox="0 0 1000 1000"><defs><style>.cls-1{fill:#fff;}</style></defs><g id="primero"><path class="cls-1" d="M613.21,425.41q20.09-40.73,20.11-122.21,0-68.76-24.34-107.39t-66.66-38.62H464q-13.77,0-19.58,5.29t-5.82,20.1V466.14H536Q593.11,466.14,613.21,425.41Z"/><path class="cls-1" d="M536,500H438.63V817.42c0,9.17,1.94,15.71,5.82,19.57s10.4,5.82,19.58,5.82h72q56.07,0,84.12-37.56t28-133.84q0-96.27-28-133.85T536,500Z"/><path class="cls-1" d="M49.36,103.23V896.77a53.87,53.87,0,0,0,53.87,53.87H896.77a53.87,53.87,0,0,0,53.87-53.87V103.23a53.87,53.87,0,0,0-53.87-53.87H103.23a53.87,53.87,0,0,0-53.87,53.87ZM783.56,782.5q-33.87,46.57-90.46,70.36T568.77,876.67H182.58V842.81h74.06q14.81,0,20.11-5.82c3.52-3.86,5.29-10.4,5.29-19.57V182.58q0-14.81-5.29-20.1t-20.11-5.29H182.58V123.33H555q62.41,0,116.92,23.28t87.28,64Q792,251.37,792,303.2q0,69.82-51.85,113.21t-127,63.49v6.35q48.66,7.41,95.76,31.21t77.77,62.95q30.68,39.17,30.68,91Q817.42,736,783.56,782.5Z"/></g></svg>